<mxfile host="app.diagrams.net" modified="2020-12-07T12:49:44.076Z" agent="5.0 (Windows)" etag="ktcW62wxt5CfMrHdzU8_" version="13.10.9" type="github">
  <diagram id="K-aYi7MoHZv7L01ski7V" name="Page-1">
    <mxGraphModel dx="1038" dy="547" grid="1" gridSize="10" guides="1" tooltips="1" connect="1" arrows="1" fold="1" page="1" pageScale="1" pageWidth="1169" pageHeight="827" math="0" shadow="0">
      <root>
        <mxCell id="0" />
        <mxCell id="1" parent="0" />
        <mxCell id="aEPLwmwttMJLvLvi62I9-1" value="STOCK COUNTS/TAKING" style="swimlane;" vertex="1" parent="1">
          <mxGeometry x="10" y="10" width="1150" height="810" as="geometry" />
        </mxCell>
        <mxCell id="aEPLwmwttMJLvLvi62I9-2" value="Start" style="rounded=1;whiteSpace=wrap;html=1;" vertex="1" parent="aEPLwmwttMJLvLvi62I9-1">
          <mxGeometry x="370" y="50" width="100" height="60" as="geometry" />
        </mxCell>
        <mxCell id="aEPLwmwttMJLvLvi62I9-5" value="The head of procurement recommends a team to carry out stocktaking" style="rounded=0;whiteSpace=wrap;html=1;" vertex="1" parent="aEPLwmwttMJLvLvi62I9-1">
          <mxGeometry x="345" y="190" width="150" height="70" as="geometry" />
        </mxCell>
        <mxCell id="aEPLwmwttMJLvLvi62I9-4" value="" style="edgeStyle=orthogonalEdgeStyle;rounded=0;orthogonalLoop=1;jettySize=auto;html=1;entryX=0.5;entryY=0;entryDx=0;entryDy=0;" edge="1" parent="aEPLwmwttMJLvLvi62I9-1" source="aEPLwmwttMJLvLvi62I9-2" target="aEPLwmwttMJLvLvi62I9-5">
          <mxGeometry relative="1" as="geometry">
            <mxPoint x="420" y="190" as="targetPoint" />
          </mxGeometry>
        </mxCell>
        <mxCell id="aEPLwmwttMJLvLvi62I9-6" value="Accounting officer/CEO appoints a team to carry out stocktaking" style="whiteSpace=wrap;html=1;rounded=0;" vertex="1" parent="aEPLwmwttMJLvLvi62I9-1">
          <mxGeometry x="350" y="330" width="140" height="60" as="geometry" />
        </mxCell>
        <mxCell id="aEPLwmwttMJLvLvi62I9-7" value="" style="edgeStyle=orthogonalEdgeStyle;rounded=0;orthogonalLoop=1;jettySize=auto;html=1;" edge="1" parent="aEPLwmwttMJLvLvi62I9-1" source="aEPLwmwttMJLvLvi62I9-5" target="aEPLwmwttMJLvLvi62I9-6">
          <mxGeometry relative="1" as="geometry" />
        </mxCell>
        <mxCell id="aEPLwmwttMJLvLvi62I9-8" value="Secretary stock take committee inducts stock take members" style="whiteSpace=wrap;html=1;rounded=0;" vertex="1" parent="aEPLwmwttMJLvLvi62I9-1">
          <mxGeometry x="350" y="450" width="140" height="60" as="geometry" />
        </mxCell>
        <mxCell id="aEPLwmwttMJLvLvi62I9-9" value="" style="edgeStyle=orthogonalEdgeStyle;rounded=0;orthogonalLoop=1;jettySize=auto;html=1;" edge="1" parent="aEPLwmwttMJLvLvi62I9-1" source="aEPLwmwttMJLvLvi62I9-6" target="aEPLwmwttMJLvLvi62I9-8">
          <mxGeometry relative="1" as="geometry" />
        </mxCell>
        <mxCell id="aEPLwmwttMJLvLvi62I9-12" value="Committee forwarding of the stock take report to the HoD Procurement" style="whiteSpace=wrap;html=1;rounded=0;" vertex="1" parent="aEPLwmwttMJLvLvi62I9-1">
          <mxGeometry x="700" y="580" width="130" height="80" as="geometry" />
        </mxCell>
        <mxCell id="aEPLwmwttMJLvLvi62I9-18" value="End" style="rounded=1;whiteSpace=wrap;html=1;" vertex="1" parent="aEPLwmwttMJLvLvi62I9-1">
          <mxGeometry x="715" y="260" width="100" height="60" as="geometry" />
        </mxCell>
        <mxCell id="aEPLwmwttMJLvLvi62I9-13" value="" style="edgeStyle=orthogonalEdgeStyle;rounded=0;orthogonalLoop=1;jettySize=auto;html=1;" edge="1" parent="1" source="aEPLwmwttMJLvLvi62I9-10" target="aEPLwmwttMJLvLvi62I9-12">
          <mxGeometry relative="1" as="geometry" />
        </mxCell>
        <mxCell id="aEPLwmwttMJLvLvi62I9-10" value="Stock taking takes place based on data extracted from the system" style="whiteSpace=wrap;html=1;rounded=0;" vertex="1" parent="1">
          <mxGeometry x="350" y="600" width="160" height="60" as="geometry" />
        </mxCell>
        <mxCell id="aEPLwmwttMJLvLvi62I9-11" value="" style="edgeStyle=orthogonalEdgeStyle;rounded=0;orthogonalLoop=1;jettySize=auto;html=1;" edge="1" parent="1" source="aEPLwmwttMJLvLvi62I9-8" target="aEPLwmwttMJLvLvi62I9-10">
          <mxGeometry relative="1" as="geometry" />
        </mxCell>
        <mxCell id="aEPLwmwttMJLvLvi62I9-17" value="" style="edgeStyle=orthogonalEdgeStyle;rounded=0;orthogonalLoop=1;jettySize=auto;html=1;entryX=0.5;entryY=1;entryDx=0;entryDy=0;" edge="1" parent="1" source="aEPLwmwttMJLvLvi62I9-14" target="aEPLwmwttMJLvLvi62I9-18">
          <mxGeometry relative="1" as="geometry">
            <mxPoint x="775" y="330" as="targetPoint" />
          </mxGeometry>
        </mxCell>
        <mxCell id="aEPLwmwttMJLvLvi62I9-14" value="HoD procurement forward the stock take report to the Accounting Officer/CEO and HoD Finance" style="whiteSpace=wrap;html=1;rounded=0;" vertex="1" parent="1">
          <mxGeometry x="680" y="420" width="190" height="80" as="geometry" />
        </mxCell>
        <mxCell id="aEPLwmwttMJLvLvi62I9-15" value="" style="edgeStyle=orthogonalEdgeStyle;rounded=0;orthogonalLoop=1;jettySize=auto;html=1;" edge="1" parent="1" source="aEPLwmwttMJLvLvi62I9-12" target="aEPLwmwttMJLvLvi62I9-14">
          <mxGeometry relative="1" as="geometry" />
        </mxCell>
      </root>
    </mxGraphModel>
  </diagram>
</mxfile>
